<?xml version="1.0" standalone="no"?>
<!DOCTYPE svg PUBLIC "-//W3C//DTD SVG 20010904//EN"
 "http://www.w3.org/TR/2001/REC-SVG-20010904/DTD/svg10.dtd">
<svg version="1.0" xmlns="http://www.w3.org/2000/svg"
 width="512.000000pt" height="512.000000pt" viewBox="0 0 512.000000 512.000000"
 preserveAspectRatio="xMidYMid meet">
<metadata>
Created by potrace 1.14, written by Peter Selinger 2001-2017
</metadata>
<g transform="translate(0.000000,512.000000) scale(0.100000,-0.100000)"
fill="#000000" stroke="none">
<path d="M2578 5100 c-20 -11 -58 -46 -83 -77 -25 -32 -57 -71 -71 -88 -13
-16 -77 -96 -141 -177 -65 -81 -123 -147 -130 -147 -7 -1 -17 8 -23 20 -16 29
-70 59 -107 59 -50 0 -79 -16 -135 -73 -186 -189 -364 -381 -370 -397 -4 -11
-2 -33 4 -51 10 -30 8 -33 -47 -89 -51 -52 -61 -57 -82 -49 -13 5 -35 6 -48 3
-24 -6 -231 -218 -319 -326 -204 -251 -343 -583 -382 -913 -9 -80 -10 -303 0
-390 36 -339 187 -698 399 -950 128 -152 314 -310 475 -401 77 -44 100 -46
137 -14 19 17 23 16 100 -24 60 -31 81 -47 85 -66 3 -14 20 -34 38 -45 31 -20
31 -21 32 -103 0 -77 -2 -83 -23 -91 -51 -20 -51 -21 -51 -351 -1 -285 1 -310
18 -329 43 -48 118 -31 131 29 4 20 11 28 18 23 16 -10 1054 -12 1090 -2 23 6
27 5 27 -12 0 -28 44 -69 75 -69 14 0 37 11 50 25 l25 24 0 468 0 468 75 36
c60 29 77 34 85 24 6 -8 24 -18 40 -24 24 -8 37 -5 77 16 52 27 205 126 225
146 7 7 27 23 43 35 54 42 197 186 251 253 204 256 333 557 382 894 12 85 8
434 -6 510 -75 394 -227 692 -498 975 -34 36 -95 99 -136 142 -40 42 -154 161
-253 264 -99 103 -198 206 -220 229 -22 23 -122 127 -221 231 -100 104 -219
229 -265 277 -46 49 -97 96 -113 104 -47 25 -116 26 -158 3z"/>
<path d="M3842 4325 c-27 -12 -41 -33 -48 -72 -3 -17 26 -53 132 -163 216
-223 284 -304 381 -452 93 -142 216 -411 237 -521 2 -12 13 -60 24 -107 51
-215 58 -408 27 -685 -6 -52 -4 -64 15 -88 16 -20 30 -27 56 -27 47 0 70 27
79 91 5 30 10 65 12 79 8 52 10 348 2 415 -17 143 -21 165 -29 195 -5 17 -9
33 -9 35 1 29 -44 188 -84 295 -82 224 -244 494 -392 655 -149 162 -338 353
-354 358 -10 2 -32 -1 -49 -8z"/>
<path d="M400 2353 c-48 -20 -55 -57 -28 -180 87 -415 295 -798 576 -1065 67
-64 93 -71 136 -37 44 35 36 76 -26 142 -99 103 -134 142 -179 202 -182 240
-299 500 -359 793 -11 57 -26 111 -32 122 -16 26 -54 36 -88 23z"/>
</g>
</svg>
